<svg width="37" height="36" viewBox="0 0 37 36" fill="none" xmlns="http://www.w3.org/2000/svg">
<g id="Search">
<path id="Vector" d="M15.5588 5.0791C21.1388 5.0791 25.6778 9.6181 25.6778 15.1996C25.6778 17.3506 24.9983 19.3426 23.8508 20.9836L31.1003 28.2331C31.7153 28.8481 31.7153 29.8441 31.1003 30.4591C30.7928 30.7666 30.3893 30.9211 29.9873 30.9211C29.5853 30.9211 29.1803 30.7666 28.8728 30.4591L21.6638 23.2501C19.9643 24.5416 17.8538 25.3186 15.5588 25.3186C9.97877 25.3186 5.43977 20.7796 5.43977 15.1981C5.43977 9.6166 9.97877 5.0791 15.5588 5.0791ZM15.5588 22.1686C19.4018 22.1686 22.5278 19.0411 22.5278 15.1981C22.5278 11.3551 19.4018 8.2276 15.5588 8.2276C11.7158 8.2276 8.58977 11.3551 8.58977 15.1981C8.58977 19.0411 11.7173 22.1686 15.5588 22.1686Z" fill="white"/>
</g>
</svg>
