<svg width="140" height="53" viewBox="0 0 140 53" fill="none" xmlns="http://www.w3.org/2000/svg">
<path d="M6.084 49.216C5.1 49.216 4.218 48.976 3.438 48.496C2.67 48.004 2.058 47.302 1.602 46.39C1.158 45.478 0.936 44.38 0.936 43.096C0.936 41.824 1.164 40.732 1.62 39.82C2.076 38.908 2.7 38.206 3.492 37.714C4.284 37.222 5.178 36.976 6.174 36.976C6.894 36.976 7.53 37.126 8.082 37.426C8.634 37.714 9.078 38.05 9.414 38.434L8.604 39.406C8.292 39.07 7.938 38.8 7.542 38.596C7.146 38.392 6.696 38.29 6.192 38.29C5.448 38.29 4.794 38.488 4.23 38.884C3.678 39.268 3.246 39.814 2.934 40.522C2.634 41.23 2.484 42.076 2.484 43.06C2.484 44.044 2.634 44.902 2.934 45.634C3.234 46.354 3.654 46.912 4.194 47.308C4.746 47.704 5.394 47.902 6.138 47.902C6.702 47.902 7.206 47.782 7.65 47.542C8.094 47.302 8.502 46.978 8.874 46.57L9.702 47.506C9.234 48.046 8.706 48.466 8.118 48.766C7.53 49.066 6.852 49.216 6.084 49.216ZM15.1612 49.216C14.4532 49.216 13.7872 49.036 13.1632 48.676C12.5512 48.316 12.0532 47.794 11.6692 47.11C11.2972 46.426 11.1112 45.604 11.1112 44.644C11.1112 43.66 11.2972 42.826 11.6692 42.142C12.0532 41.458 12.5512 40.936 13.1632 40.576C13.7872 40.216 14.4532 40.036 15.1612 40.036C15.8812 40.036 16.5472 40.216 17.1592 40.576C17.7712 40.936 18.2632 41.458 18.6352 42.142C19.0192 42.826 19.2112 43.66 19.2112 44.644C19.2112 45.604 19.0192 46.426 18.6352 47.11C18.2632 47.794 17.7712 48.316 17.1592 48.676C16.5472 49.036 15.8812 49.216 15.1612 49.216ZM15.1612 47.992C15.9172 47.992 16.5232 47.686 16.9792 47.074C17.4472 46.45 17.6812 45.64 17.6812 44.644C17.6812 43.636 17.4472 42.82 16.9792 42.196C16.5232 41.572 15.9172 41.26 15.1612 41.26C14.4172 41.26 13.8112 41.572 13.3432 42.196C12.8752 42.82 12.6412 43.636 12.6412 44.644C12.6412 45.64 12.8752 46.45 13.3432 47.074C13.8112 47.686 14.4172 47.992 15.1612 47.992ZM21.5151 49V40.252H22.7391L22.8651 41.512H22.9191C23.3391 41.092 23.7831 40.744 24.2511 40.468C24.7191 40.18 25.2531 40.036 25.8531 40.036C26.7771 40.036 27.4491 40.33 27.8691 40.918C28.3011 41.494 28.5171 42.34 28.5171 43.456V49H27.0411V43.654C27.0411 42.838 26.9091 42.244 26.6451 41.872C26.3811 41.5 25.9611 41.314 25.3851 41.314C24.9411 41.314 24.5391 41.428 24.1791 41.656C23.8311 41.884 23.4351 42.22 22.9911 42.664V49H21.5151ZM34.1128 49.216C33.1768 49.216 32.5228 48.946 32.1508 48.406C31.7908 47.866 31.6108 47.164 31.6108 46.3V41.458H30.3148V40.342L31.6828 40.252L31.8628 37.804H33.1048V40.252H35.4628V41.458H33.1048V46.318C33.1048 46.858 33.2008 47.278 33.3928 47.578C33.5968 47.866 33.9508 48.01 34.4548 48.01C34.6108 48.01 34.7788 47.986 34.9588 47.938C35.1388 47.878 35.3008 47.824 35.4448 47.776L35.7328 48.892C35.4928 48.976 35.2288 49.048 34.9408 49.108C34.6648 49.18 34.3888 49.216 34.1128 49.216ZM40.7408 49.216C39.9608 49.216 39.2528 49.036 38.6168 48.676C37.9808 48.304 37.4768 47.776 37.1048 47.092C36.7328 46.408 36.5468 45.592 36.5468 44.644C36.5468 43.684 36.7328 42.862 37.1048 42.178C37.4888 41.494 37.9808 40.966 38.5808 40.594C39.1808 40.222 39.8108 40.036 40.4707 40.036C41.5868 40.036 42.4448 40.408 43.0448 41.152C43.6568 41.896 43.9628 42.892 43.9628 44.14C43.9628 44.296 43.9568 44.452 43.9448 44.608C43.9448 44.752 43.9328 44.878 43.9088 44.986H38.0048C38.0648 45.91 38.3528 46.648 38.8688 47.2C39.3968 47.752 40.0808 48.028 40.9208 48.028C41.3408 48.028 41.7248 47.968 42.0728 47.848C42.4328 47.716 42.7748 47.548 43.0988 47.344L43.6208 48.316C43.2488 48.556 42.8228 48.766 42.3428 48.946C41.8748 49.126 41.3408 49.216 40.7408 49.216ZM37.9868 43.924H42.6668C42.6668 43.036 42.4748 42.364 42.0908 41.908C41.7188 41.44 41.1908 41.206 40.5068 41.206C39.8948 41.206 39.3428 41.446 38.8508 41.926C38.3708 42.394 38.0828 43.06 37.9868 43.924ZM46.1244 49V40.252H47.3484L47.4744 41.512H47.5284C47.9484 41.092 48.3924 40.744 48.8604 40.468C49.3284 40.18 49.8624 40.036 50.4624 40.036C51.3864 40.036 52.0584 40.33 52.4784 40.918C52.9104 41.494 53.1264 42.34 53.1264 43.456V49H51.6504V43.654C51.6504 42.838 51.5184 42.244 51.2544 41.872C50.9904 41.5 50.5704 41.314 49.9944 41.314C49.5504 41.314 49.1484 41.428 48.7884 41.656C48.4404 41.884 48.0444 42.22 47.6004 42.664V49H46.1244ZM58.7222 49.216C57.7862 49.216 57.1322 48.946 56.7602 48.406C56.4002 47.866 56.2202 47.164 56.2202 46.3V41.458H54.9242V40.342L56.2922 40.252L56.4722 37.804H57.7142V40.252H60.0722V41.458H57.7142V46.318C57.7142 46.858 57.8102 47.278 58.0022 47.578C58.2062 47.866 58.5602 48.01 59.0642 48.01C59.2202 48.01 59.3882 47.986 59.5682 47.938C59.7482 47.878 59.9102 47.824 60.0542 47.776L60.3422 48.892C60.1022 48.976 59.8382 49.048 59.5502 49.108C59.2742 49.18 58.9982 49.216 58.7222 49.216ZM65.7977 49V37.192H67.2917V42.142H72.7817V37.192H74.2937V49H72.7817V43.438H67.2917V49H65.7977ZM79.9519 49.216C79.0279 49.216 78.3499 48.928 77.9179 48.352C77.4859 47.764 77.2699 46.912 77.2699 45.796V40.252H78.7639V45.598C78.7639 46.414 78.8899 47.008 79.1419 47.38C79.4059 47.752 79.8259 47.938 80.4019 47.938C80.8579 47.938 81.2599 47.824 81.6079 47.596C81.9679 47.356 82.3519 46.978 82.7599 46.462V40.252H84.2359V49H83.0119L82.8859 47.632H82.8319C82.4239 48.112 81.9919 48.496 81.5359 48.784C81.0799 49.072 80.5519 49.216 79.9519 49.216ZM91.0569 49.216C90.6489 49.216 90.2229 49.12 89.7789 48.928C89.3469 48.724 88.9389 48.448 88.5549 48.1H88.5009L88.3749 49H87.1869V36.184H88.6629V39.676L88.6269 41.26C89.0229 40.912 89.4549 40.624 89.9229 40.396C90.4029 40.156 90.8829 40.036 91.3629 40.036C92.5029 40.036 93.3669 40.438 93.9549 41.242C94.5429 42.046 94.8369 43.126 94.8369 44.482C94.8369 45.478 94.6569 46.33 94.2969 47.038C93.9489 47.746 93.4869 48.286 92.9109 48.658C92.3469 49.03 91.7289 49.216 91.0569 49.216ZM90.8049 47.974C91.5249 47.974 92.1189 47.668 92.5869 47.056C93.0669 46.432 93.3069 45.58 93.3069 44.5C93.3069 43.54 93.1269 42.766 92.7669 42.178C92.4189 41.578 91.8309 41.278 91.0029 41.278C90.6309 41.278 90.2529 41.38 89.8689 41.584C89.4849 41.788 89.0829 42.082 88.6629 42.466V47.056C89.0469 47.392 89.4249 47.632 89.7969 47.776C90.1809 47.908 90.5169 47.974 90.8049 47.974Z" fill="white"/>
<path d="M36.966 30.1612C31.967 30.1612 31.5869 26.3654 31.5869 25.1877C31.5869 23.8142 31.9415 21.3857 35.1256 20.2141C38.4085 19.0006 39.1108 18.8608 41.3723 18.1492V17.5525C41.3723 16.4556 41.3723 16.1915 41.1513 15.5016C40.721 14.2073 39.4693 13.3791 37.7788 13.3791C36.0867 13.3791 34.689 14.3176 34.0601 15.6787L33.1368 15.1318C33.7256 13.0373 35.8178 10.9569 39.4299 10.9569C42.0004 10.9569 43.6802 11.6871 44.7024 13.2673C45.485 14.5196 45.5546 16.2598 45.5546 18.0683C45.5546 19.6641 45.5059 21.4354 45.4773 22.8695C45.4511 23.8577 45.4279 24.706 45.4279 25.2312C45.4279 26.5317 45.6334 27.5432 46.7159 27.5432C47.1617 27.5432 47.2497 27.4235 47.633 27.1128L48.2233 27.8027C47.2497 29.0783 46.1804 30.1302 44.3817 30.1302C42.923 30.1302 41.9078 29.4278 41.5701 28.2533C40.7511 29.1047 39.2823 30.1612 36.966 30.1612ZM41.3723 20.4348C38.9269 21.1759 38.0855 21.5815 37.3353 21.9761C36.2629 22.5059 35.7267 23.5951 35.7267 24.8816C35.7267 25.8807 36.0821 27.5634 38.4711 27.5634C39.2599 27.5634 40.3934 27.4111 41.3723 26.7072V20.4348ZM0.136795 29.1622C0.136795 27.3008 0.149928 25.7237 0 23.8142H1.09175C1.10638 24.9934 1.43243 25.8651 1.94242 26.4446C2.72276 27.3303 4.52918 27.8664 6.20735 27.8664C9.71203 27.8664 11.3453 26.5317 11.3453 23.665C11.3453 21.2085 9.83641 20.1893 7.74493 18.7707L7.42268 18.5438L5.22304 17.0662C2.15794 15.0308 0.590298 13.3947 0.590298 10.1318C0.590298 8.53608 1.19911 3.32637 8.90922 3.32637C10.8555 3.32637 13.4129 3.53305 14.9567 3.82198C14.9412 4.07058 14.915 5.26235 14.915 6.26455C14.915 7.42824 14.915 7.81359 14.9598 9.23686H14.0249C13.9956 7.98455 13.6532 7.17813 13.1124 6.63431C12.3668 5.89161 10.7257 5.54516 8.9904 5.54516C4.90388 5.54516 4.42182 7.65202 4.42182 9.23686C4.42182 11.4214 5.53287 12.1563 7.95348 13.7723L10.7527 15.6259C13.1294 17.2216 15.3693 18.7256 15.3693 22.6908C15.3693 29.403 9.1503 30.1224 6.47619 30.1224C4.0517 30.1224 2.10469 29.8225 0.136795 29.1622ZM49.8713 12.1875C50.8062 12.2605 52.2147 12.1657 53.5915 11.9264C54.752 11.7244 55.1739 11.5597 56.0423 11.12L56.4055 11.3375V12.8089C57.3358 12.119 59.2017 11.0268 61.746 11.0268C65.0582 11.0268 67.2286 12.5836 67.842 15.4162C68.0167 16.1215 68.0846 17.8135 68.0846 18.7256V24.128C68.0846 27.1842 68.2051 28.0357 68.7722 28.5811C69.0636 28.8375 69.738 29.1171 70.5571 29.1171V29.9826C69.3734 29.9251 67.2711 29.8023 66.0039 29.8023C64.3157 29.8023 62.4181 29.8847 61.3951 30.0028V29.1513C62.3076 29.055 62.9311 28.7862 63.251 28.4754C63.7841 27.9378 63.8745 26.8704 63.9525 24.5709C63.975 23.8841 63.9943 22.4344 63.9943 21.3701C63.9943 19.9904 63.9943 18.5516 63.8366 17.1408C63.5631 14.7449 62.3115 13.6324 59.9334 13.6324C58.2721 13.6324 57.2554 14.0131 56.4812 14.4062V24.128C56.4812 27.1842 56.6009 28.0357 57.1835 28.5811C57.4616 28.8375 58.1826 29.1233 58.9575 29.1171V29.9826C57.4331 29.9033 55.6066 29.8023 54.4321 29.8023C51.9837 29.8023 51.2134 29.8536 49.7932 30.0028V29.1202C50.5899 29.1125 51.3601 28.825 51.7921 28.3325C52.3522 27.6954 52.387 26.1168 52.387 22.9673V17.68C52.387 15.3897 52.3437 14.4187 52.0216 13.923C51.7697 13.5392 51.1384 13.2316 49.8713 13.2471V12.1875ZM72.7451 29.1047C73.4985 29.1171 74.299 28.8281 74.7463 28.3201C75.3165 27.6799 75.3489 26.1168 75.3489 22.9673V13.7878H72.9468V12.7483C73.9582 12.3552 74.8452 11.8937 75.3489 11.4976C75.3528 9.86771 75.403 7.74526 75.6263 6.59079C76.3348 2.77945 78.8335 0.831055 82.9996 0.831055C84.8385 0.831055 86.5893 1.46182 87.6415 2.36928L87.7018 2.75924L85.8738 5.30428L85.4272 5.31207C84.8052 3.77695 83.8711 2.8975 82.2216 2.8975C81.6521 2.8975 80.857 3.07618 80.3664 3.56097C79.5791 4.35959 79.4377 5.54977 79.4377 7.91462V11.4898H83.5466V13.7878H79.4377V24.055C79.4377 26.4897 79.5251 27.6861 79.8395 28.1647C80.3525 28.94 81.9712 29.0317 82.767 29.0022V29.9826C81.4149 29.9017 79.3141 29.8023 77.7433 29.8023C75.461 29.8023 73.9744 29.8707 72.7451 30.0028V29.1047ZM93.9246 30.3213C88.3061 30.3213 84.9466 26.7943 84.9466 20.9087C84.9466 16.3235 87.4006 10.9911 94.3125 10.9911C99.9296 10.9911 103.278 14.5025 103.278 20.399C103.278 24.967 100.827 30.3213 93.9246 30.3213ZM94.158 13.1274C93.0624 13.1274 92.1932 13.4118 91.5418 13.968C90.0684 15.2173 89.3174 17.4749 89.3174 20.7067C89.3174 21.9528 89.5507 28.1755 94.0815 28.1755C95.1593 28.1755 96.0416 27.8959 96.6768 27.3396C98.1648 26.0935 98.9105 23.822 98.9105 20.5886C98.9105 19.3534 98.6786 13.1274 94.158 13.1274ZM105.134 12.1206C106.386 12.1921 107.739 12.0414 109.159 11.7881C110.253 11.5939 110.951 11.3561 111.344 11.1713L111.677 11.336V12.9426C112.564 12.1066 113.954 11.2257 115.928 11.2257C117.373 11.2257 118.329 11.6311 119.135 12.3676V12.9519L117.59 15.8092H116.833C116.343 14.9454 115.422 14.1389 113.768 14.1389C112.988 14.1389 112.338 14.3285 111.754 14.7232V24.055C111.754 26.4897 111.834 27.6426 112.15 28.1243C112.661 28.9058 114.191 28.9867 115.067 28.9571V29.9826C113.802 29.9126 111.623 29.8023 110.056 29.8023C108.277 29.8023 106.521 29.835 105.054 30.0028V29.0659C106.081 29.0146 106.657 28.7303 107.055 28.2797C107.627 27.6333 107.654 26.1168 107.654 22.9673V17.68C107.654 15.3897 107.637 14.4015 107.291 13.9215C106.988 13.505 106.321 13.2611 105.134 13.2471V12.1206ZM131.034 1.9062C132.145 1.9062 133.596 1.69961 135.36 1.3888C136.363 1.21322 137.037 1.02834 137.361 0.89939L137.681 1.08586C137.523 2.61318 137.521 6.05477 137.521 8.49257V23.5858C137.521 25.8387 137.56 27.2324 137.879 27.6861C138.166 28.1056 138.846 28.3868 140 28.39V29.3812C138.838 29.3812 137.463 29.5304 136.043 29.7635C135.098 29.9188 134.354 30.0727 134 30.2685L133.498 30.0975V28.5376C132.587 29.2197 130.769 30.2778 128.359 30.2778C123.307 30.2778 120.046 26.7539 120.046 21.2971C120.046 19.4776 120.394 17.7576 121.032 16.3064C122.584 12.9504 125.787 11.0268 129.827 11.0268C131.304 11.0268 132.627 11.2102 133.419 11.3794V7.44383C133.419 5.1365 133.383 3.9075 133.049 3.41181C132.794 3.03274 132.415 2.84627 131.034 2.74834V1.9062ZM130.393 27.6255C131.65 27.6255 132.502 27.4251 133.419 26.8782V14.4792C133.116 14.1871 132.002 13.2409 129.744 13.2409C126.161 13.2409 124.422 15.7082 124.422 20.7828C124.422 22.913 125.056 27.6255 130.393 27.6255ZM29.7364 28.1522C29.1801 28.8312 27.7454 30.2592 24.7522 30.2592C21.9073 30.2592 20.3218 29.243 19.6249 26.9512C19.3398 26.0423 19.3398 24.2601 19.3398 23.1833C19.3398 20.2219 19.3699 17.8478 19.4009 15.1022L19.4117 13.8126H16.9825V13.0886C17.9692 12.7049 18.6383 12.3055 19.2881 11.8083C20.7128 10.6974 21.6238 9.3083 22.7154 7.3568H23.5252V11.5147H29.7758V13.8126H23.5252V23.5298C23.5252 26.4369 24.0498 28.0917 26.7796 28.0917C28.0544 28.0917 28.895 27.6737 29.425 27.394L29.7364 28.1522Z" fill="white"/>
</svg>
