<svg width="250" height="53" viewBox="0 0 250 53" fill="none" xmlns="http://www.w3.org/2000/svg">
<path id="Vector" d="M66.0107 52.7123C57.084 52.7123 56.4051 45.8904 56.4051 43.7739C56.4051 41.3054 57.0385 36.9409 62.7242 34.8353C68.5866 32.6544 69.8407 32.4031 73.8791 31.1242V30.0519C73.8791 28.0805 73.8791 27.6058 73.4845 26.366C72.7161 24.0398 70.4809 22.5515 67.4621 22.5515C64.4405 22.5515 61.9446 24.2381 60.8216 26.6842L59.1728 25.7013C60.2242 21.9371 63.9604 18.1981 70.4105 18.1981C75.0008 18.1981 78.0003 19.5106 79.8257 22.3505C81.2232 24.6011 81.3474 27.7286 81.3474 30.9789C81.3474 33.8468 81.2605 37.0302 81.2095 39.6076C81.1626 41.3836 81.1212 42.9082 81.1212 43.8521C81.1212 46.1893 81.4881 48.0071 83.4212 48.0071C84.2173 48.0071 84.3745 47.7921 85.0589 47.2337L86.113 48.4735C84.3745 50.7661 82.465 52.6566 79.2531 52.6566C76.6482 52.6566 74.8353 51.3943 74.2323 49.2833C72.7698 50.8135 70.147 52.7123 66.0107 52.7123ZM73.8791 35.2319C69.5124 36.5638 68.0098 37.2927 66.6702 38.002C64.7551 38.9542 63.7977 40.9116 63.7977 43.2237C63.7977 45.0193 64.4323 48.0435 68.6983 48.0435C70.107 48.0435 72.131 47.7698 73.8791 46.5048V35.2319ZM0.244276 50.9169C0.244276 47.5715 0.267729 44.7372 0 41.3054H1.94955C1.97569 43.4248 2.55791 44.9913 3.46861 46.0329C4.86207 47.6246 8.08782 48.588 11.0846 48.588C17.3429 48.588 20.2595 46.1893 20.2595 41.0373C20.2595 36.6225 17.565 34.7907 13.8302 32.2412L13.2548 31.8335L9.32687 29.1779C3.85346 25.5199 1.0541 22.5794 1.0541 16.7154C1.0541 13.8475 2.14127 4.48459 15.9093 4.48459C19.3849 4.48459 23.9517 4.85603 26.7084 5.3753C26.6808 5.82209 26.6339 7.96395 26.6339 9.7651C26.6339 11.8565 26.6339 12.549 26.7139 15.1069H25.0445C24.9921 12.8563 24.3807 11.407 23.4149 10.4296C22.0836 9.09485 19.153 8.47221 16.0543 8.47221C8.75694 8.47221 7.8961 12.2587 7.8961 15.1069C7.8961 19.0331 9.88012 20.3539 14.2026 23.258L19.2013 26.5893C23.4453 29.4572 27.4451 32.1602 27.4451 39.2864C27.4451 51.3497 16.3398 52.6426 11.5646 52.6426C7.23519 52.6426 3.75838 52.1036 0.244276 50.9169ZM89.0559 20.4098C90.7253 20.541 93.2405 20.3706 95.6991 19.9405C97.7714 19.5775 98.5248 19.2816 100.076 18.4914L100.724 18.8823V21.5267C102.385 20.2868 105.717 18.3238 110.261 18.3238C116.175 18.3238 120.051 21.1218 121.146 26.2124C121.458 27.4801 121.58 30.521 121.58 32.1602V41.8694C121.58 47.3621 121.795 48.8923 122.808 49.8725C123.328 50.3333 124.532 50.8358 125.995 50.8358V52.3912C123.881 52.2879 120.127 52.0672 117.864 52.0672C114.849 52.0672 111.461 52.2154 109.634 52.4275V50.8973C111.264 50.7242 112.377 50.2411 112.948 49.6826C113.9 48.7164 114.062 46.798 114.201 42.6653C114.241 41.431 114.276 38.8257 114.276 36.9128C114.276 34.4333 114.276 31.8475 113.994 29.3119C113.506 25.006 111.271 23.0067 107.024 23.0067C104.057 23.0067 102.242 23.6908 100.859 24.3972V41.8694C100.859 47.3621 101.073 48.8923 102.113 49.8725C102.61 50.3333 103.897 50.847 105.281 50.8358V52.3912C102.559 52.2488 99.2974 52.0672 97.2002 52.0672C92.828 52.0672 91.4525 52.1595 88.9165 52.4275V50.8414C90.339 50.8275 91.7145 50.3108 92.4858 49.4257C93.4861 48.2808 93.5482 45.4437 93.5482 39.7834V30.281C93.5482 26.1649 93.471 24.4197 92.8957 23.5288C92.4458 22.8391 91.3185 22.2863 89.0559 22.3141V20.4098ZM129.902 50.8135C131.247 50.8358 132.677 50.3164 133.475 49.4034C134.494 48.2529 134.552 45.4437 134.552 39.7834V23.2859H130.262V21.4177C132.068 20.7113 133.652 19.8819 134.552 19.1699C134.559 16.2407 134.648 12.4262 135.047 10.3514C136.312 3.50166 140.774 0 148.214 0C151.497 0 154.624 1.13362 156.503 2.7645L156.61 3.46535L153.346 8.03929L152.549 8.0533C151.438 5.29438 149.77 3.71383 146.824 3.71383C145.807 3.71383 144.388 4.03494 143.511 4.90621C142.106 6.34151 141.853 8.4805 141.853 12.7306V19.1559H149.19V23.2859H141.853V41.7381C141.853 46.1139 142.009 48.2641 142.571 49.1242C143.487 50.5176 146.377 50.6823 147.798 50.6292V52.3912C145.384 52.246 141.632 52.0672 138.827 52.0672C134.752 52.0672 132.097 52.1902 129.902 52.4275V50.8135ZM167.723 53C157.689 53 151.69 46.6612 151.69 36.0836C151.69 27.8431 156.072 18.2596 168.415 18.2596C178.446 18.2596 184.425 24.5704 184.425 35.1676C184.425 43.3773 180.049 53 167.723 53ZM168.139 22.0991C166.183 22.0991 164.631 22.6101 163.468 23.6098C160.836 25.855 159.495 29.9124 159.495 35.7206C159.495 37.9601 159.912 49.1436 168.003 49.1436C169.927 49.1436 171.503 48.6411 172.637 47.6413C175.294 45.4018 176.626 41.3194 176.626 35.5083C176.626 33.2884 176.212 22.0991 168.139 22.0991ZM187.739 20.2897C189.974 20.4181 192.392 20.1473 194.926 19.692C196.881 19.3431 198.127 18.9157 198.829 18.5834L199.424 18.8795V21.7669C201.007 20.2645 203.49 18.6812 207.014 18.6812C209.594 18.6812 211.302 19.41 212.741 20.7336V21.7836L209.982 26.9188H208.631C207.756 25.3663 206.11 23.917 203.158 23.917C201.764 23.917 200.604 24.2577 199.561 24.967V41.7381C199.561 46.1139 199.703 48.1859 200.268 49.0516C201.18 50.4561 203.912 50.6014 205.477 50.5482V52.3912C203.218 52.2656 199.326 52.0672 196.528 52.0672C193.352 52.0672 190.216 52.126 187.596 52.4275V50.7438C189.431 50.6515 190.459 50.1406 191.169 49.3308C192.19 48.1691 192.24 45.4437 192.24 39.7834V30.281C192.24 26.1649 192.21 24.389 191.592 23.5261C191.049 22.7777 189.859 22.3393 187.739 22.3141V20.2897ZM233.99 1.93226C235.974 1.93226 238.565 1.56096 241.713 1.00237C243.506 0.686836 244.709 0.35457 245.287 0.122813L245.859 0.457938C245.577 3.20285 245.574 9.38809 245.574 13.7693V40.8949C245.574 44.9438 245.643 47.4487 246.213 48.2641C246.725 49.018 247.939 49.5234 250 49.5291V51.3105C247.925 51.3105 245.469 51.5786 242.934 51.9975C241.247 52.2767 239.917 52.5532 239.287 52.9051L238.39 52.5978V49.7943C236.762 51.0201 233.517 52.9218 229.213 52.9218C220.191 52.9218 214.368 46.5886 214.368 36.7816C214.368 33.5117 214.988 30.4205 216.128 27.8124C218.9 21.7809 224.619 18.3238 231.833 18.3238C234.471 18.3238 236.835 18.6534 238.248 18.9576V11.8845C238.248 7.73777 238.184 5.529 237.588 4.63814C237.133 3.95688 236.455 3.62176 233.99 3.44576V1.93226ZM232.845 48.1551C235.09 48.1551 236.61 47.795 238.248 46.812V24.5285C237.707 24.0035 235.717 22.303 231.686 22.303C225.287 22.303 222.182 26.7373 222.182 35.8574C222.182 39.6858 223.315 48.1551 232.845 48.1551ZM53.1008 49.1017C52.1073 50.322 49.5453 52.8883 44.2003 52.8883C39.1202 52.8883 36.289 51.062 35.0445 46.9433C34.5354 45.3097 34.5354 42.1067 34.5354 40.1716C34.5354 34.8493 34.5892 30.5825 34.6444 25.6482L34.6638 23.3305H30.3259V22.0293C32.0878 21.3397 33.2826 20.6219 34.443 19.7284C36.9872 17.7318 38.6139 15.2353 40.5633 11.7281H42.0093V19.2007H53.1712V23.3305H42.0093V40.7944C42.0093 46.019 42.9462 48.9929 47.8207 48.9929C50.0971 48.9929 51.5983 48.2418 52.5447 47.7391L53.1008 49.1017Z" fill="white"/>
</svg>
