<svg width="405" height="62" viewBox="0 0 405 62" fill="none" xmlns="http://www.w3.org/2000/svg">
<path d="M61.4955 48.1107C53.2498 48.1107 52.6192 41.8761 52.6192 39.9454C52.6192 37.6945 53.2122 33.7013 58.4646 31.78C63.877 29.7834 65.0536 29.5574 68.8187 28.3896V27.4478C68.9186 26.3107 68.7938 25.1651 68.4516 24.0762C67.7457 21.9571 65.6748 20.5915 62.8886 20.5915C61.6123 20.5643 60.355 20.905 59.2668 21.573C58.1787 22.2409 57.3055 23.2079 56.7514 24.3587L55.2265 23.464C56.1678 20.0264 59.6506 16.6077 65.5807 16.6077C69.8259 16.6077 72.6027 17.8038 74.2876 20.3749C75.5772 22.428 75.6901 25.2817 75.6901 28.2577C75.6901 30.8759 75.6148 33.786 75.5678 36.1405C75.5207 37.7604 75.4831 39.1543 75.4831 40.0207C75.4831 42.1492 75.8219 43.7879 77.6104 43.7879C78.3446 43.7879 78.4858 43.5901 79.1164 43.0816L80.0577 44.2117C78.4481 46.3025 76.6879 48.0354 73.7134 48.0354C71.3131 48.0354 69.6377 46.877 69.0823 44.9557C68.0998 45.9717 66.9198 46.7758 65.6151 47.3184C64.3103 47.861 62.9083 48.1306 61.4955 48.1107ZM68.7717 32.1002C66.4676 32.7086 64.2339 33.5577 62.1073 34.6337C61.252 35.089 60.5465 35.7819 60.0755 36.629C59.6046 37.4761 59.3884 38.4414 59.4529 39.4086C59.4529 41.0473 60.0365 43.8068 63.9805 43.8068C65.6842 43.8462 67.3582 43.3559 68.7717 42.4035V32.1002ZM0.7259 46.4343C0.7259 43.3829 0.725909 40.7836 0.5 37.6568H2.29786C2.24048 39.2318 2.75546 40.7742 3.74744 41.9985C5.03701 43.4583 8.02089 44.3342 10.7883 44.3342C16.5678 44.3342 19.2599 42.1398 19.2599 37.4402C19.2599 33.3999 16.7655 31.7329 13.3109 29.3973L12.7838 29.03L9.15045 26.6002C4.09573 23.2568 1.50717 20.5727 1.50717 15.2139C1.50717 12.5957 2.51436 4.03477 15.2406 4.03477C18.583 4.04145 21.9195 4.31544 25.2182 4.85413C25.2182 5.2591 25.1429 7.21804 25.1429 8.86618C25.1429 10.7498 25.1429 11.409 25.2182 13.7447H23.6745C23.7169 12.9679 23.6056 12.1904 23.3472 11.4567C23.0888 10.723 22.6882 10.0475 22.1685 9.46892C20.9448 8.254 18.2339 7.67951 15.3724 7.67951C8.62332 7.67951 7.84205 11.1453 7.84205 13.7447C7.84205 17.3329 9.67756 18.5384 13.6686 21.1943L18.2903 24.2363C22.2061 26.8545 25.9054 29.3219 25.9054 35.8392C25.9054 46.8581 15.6453 48.0825 11.2307 48.0825C7.66345 48.1411 4.11194 47.5966 0.7259 46.472V46.4343ZM82.8157 18.5949C84.8709 18.689 86.9301 18.5468 88.9529 18.1711C90.3729 17.9842 91.7456 17.5339 93.0004 16.8432L93.5934 17.2011V19.6215C96.1474 17.7317 99.2369 16.7058 102.413 16.6925C107.873 16.6925 111.459 19.2447 112.466 23.8972C112.759 25.6934 112.894 27.5116 112.871 29.3314V38.2313C112.871 43.2511 113.069 44.6543 114.01 45.5491C114.868 46.1517 115.899 46.4591 116.947 46.4249V47.847C114.998 47.7529 111.525 47.5551 109.417 47.5551C106.593 47.5551 103.505 47.6869 101.811 47.8847V46.4814C102.926 46.4458 104 46.0566 104.88 45.3701C105.755 44.4942 105.906 42.7425 106.037 38.9659C106.037 37.8358 106.103 35.453 106.103 33.7013C106.146 31.3845 106.058 29.0671 105.84 26.7603C105.388 22.8236 103.326 20.9965 99.4012 20.9965C97.4268 20.9396 95.4694 21.3766 93.7064 22.2679V38.2784C93.7064 43.2982 93.9041 44.7015 94.8642 45.5962C95.7204 46.1956 96.747 46.5028 97.7916 46.472V47.8941C95.2784 47.7623 92.2568 47.6022 90.3272 47.6022C87.7687 47.5487 85.2095 47.6588 82.6651 47.9318V46.4814C83.2747 46.4971 83.8813 46.3901 84.4488 46.1668C85.0163 45.9436 85.5333 45.6086 85.969 45.1818C86.9103 44.1364 86.9103 41.5464 86.9103 36.376V27.6926C86.9103 23.9255 86.835 22.3338 86.3079 21.5239C85.8937 20.8929 84.8489 20.3843 82.7592 20.4126L82.8157 18.5949ZM120.561 46.3778C121.171 46.4013 121.779 46.2989 122.348 46.0769C122.916 45.8549 123.433 45.5181 123.865 45.0876C124.807 44.0422 124.863 41.4711 124.863 36.3007V21.2319H120.891V19.5273C122.301 19.0233 123.636 18.3328 124.863 17.4742C124.808 14.7824 124.959 12.0904 125.315 9.42184C126.482 3.15891 130.605 0.00389589 137.486 0.00389589C140.235 -0.0654945 142.928 0.793789 145.129 2.44314L145.223 3.08355L142.211 7.26512H141.467C140.441 4.74111 138.907 3.30018 136.177 3.30018C135.06 3.27765 133.973 3.66261 133.118 4.38323C131.819 5.70175 131.584 7.65126 131.584 11.5314V17.4083H138.352V21.1754H131.565V38.0429C131.565 42.0362 131.716 44.0045 132.233 44.7862C133.081 46.0576 135.754 46.2083 137.062 46.1612V47.7717C134.831 47.6399 131.414 47.4797 128.769 47.4797C126.017 47.4433 123.264 47.5533 120.524 47.8094L120.561 46.3778ZM155.511 48.3744C146.24 48.3744 140.696 42.5824 140.696 32.9196C140.696 25.3852 144.743 16.636 156.152 16.636C165.423 16.636 170.949 22.3998 170.949 32.0814C170.93 39.5875 166.882 48.3744 155.493 48.3744H155.511ZM155.897 20.1206C154.337 20.0449 152.803 20.5367 151.577 21.505C149.148 23.5582 147.906 27.2594 147.906 32.5711C147.906 34.6148 148.292 44.8145 155.775 44.8145C157.322 44.8931 158.845 44.4042 160.058 43.4394C162.515 41.3957 163.738 37.6663 163.738 32.3545C163.767 30.3673 163.343 20.1395 155.879 20.1395L155.897 20.1206ZM173.989 18.4536C176.218 18.5233 178.447 18.34 180.634 17.9074C181.874 17.7198 183.085 17.3781 184.24 16.8903L184.795 17.1634V19.8004C186.675 17.9799 189.191 16.9661 191.808 16.975C192.77 16.9217 193.734 17.0608 194.642 17.3842C195.55 17.7076 196.385 18.2088 197.098 18.8586V19.8004L194.547 24.5094H193.295C192.795 23.6236 192.055 22.8967 191.161 22.412C190.267 21.9273 189.255 21.7044 188.24 21.7687C187.062 21.7316 185.901 22.0606 184.917 22.7105V38.0336C184.917 42.0268 185.049 43.9198 185.576 44.7109C186.414 45.9917 188.937 46.1235 190.386 46.0765V47.7623C188.297 47.6493 184.738 47.4703 182.112 47.4703C179.357 47.4286 176.601 47.5387 173.857 47.8V46.2554C174.468 46.2859 175.078 46.1867 175.647 45.9643C176.217 45.7419 176.733 45.4014 177.161 44.9651C178.102 43.9103 178.102 41.4146 178.102 36.2441V27.5608C178.102 23.7936 178.102 22.1737 177.509 21.392C176.916 20.6103 175.9 20.309 173.942 20.2807L173.989 18.4536ZM216.733 1.68029C219.13 1.58871 221.516 1.30527 223.868 0.832679C224.992 0.664446 226.098 0.393311 227.172 0.0227214L227.708 0.33353C227.445 2.8387 227.435 8.48947 227.435 12.4921V37.2895C227.435 40.9908 227.501 43.2793 228.028 44.0233C228.555 44.7674 229.628 45.1723 231.53 45.1723V46.8017C229.339 46.8402 227.155 47.0512 224.997 47.4326C223.842 47.5582 222.709 47.8369 221.628 48.2614L220.799 47.9789V45.4172C218.346 47.2345 215.38 48.224 212.328 48.2426C203.988 48.2426 198.613 42.4506 198.613 33.4941C198.585 30.6797 199.139 27.8899 200.241 25.3005C202.802 19.7816 208.082 16.6266 214.747 16.6266C216.738 16.6219 218.725 16.8175 220.677 17.2105V10.7403C220.677 6.97317 220.62 4.93889 220.065 4.14778C219.651 3.5262 219.02 3.206 216.742 3.06473L216.733 1.68029ZM215.679 43.9103C217.425 43.9981 219.16 43.5725 220.667 42.686V22.3621C220.169 21.8818 218.333 20.3278 214.606 20.3278C208.694 20.3278 205.823 24.3775 205.823 32.7124C205.823 36.2065 206.868 43.948 215.679 43.948V43.9103ZM49.5694 44.8239C48.6281 45.9352 46.2843 48.2803 41.3425 48.2803C36.6361 48.2803 34.0287 46.6133 32.8709 42.8555C32.4705 40.8188 32.3125 38.7418 32.4003 36.6679C32.4003 31.7989 32.4568 27.8998 32.5038 23.3981V21.279H28.4939V20.0924C29.8468 19.5804 31.1159 18.8694 32.2591 17.9827C34.6123 16.1651 36.1184 13.8765 37.9068 10.6744H39.2434V17.5118H49.5976V21.279H39.2434V37.233C39.2434 42.0079 40.1094 44.7203 44.6182 44.7203C46.145 44.7243 47.6467 44.3316 48.9764 43.5807L49.5694 44.8239Z" fill="white"/>
<path d="M269.303 47.866L258.497 29.322C264.258 27.9093 268.042 23.9821 268.042 17.3707C268.042 8.53663 261.839 5.42871 253.198 5.42871H239.916V47.866H245.31V29.9248H252.972L263.185 47.866H269.303ZM245.31 9.80805H252.426C259.015 9.80805 262.658 11.7858 262.658 17.3424C262.658 22.899 259.024 25.5172 252.426 25.5172H245.31V9.80805Z" fill="white"/>
<path d="M270.33 32.1942C270.33 21.9663 277.22 15.6562 284.449 15.6562C292.46 15.6562 296.987 21.42 296.987 30.4048C296.995 31.4177 296.913 32.4294 296.743 33.4279H275.582C275.968 40.0864 280.035 44.3998 286.021 44.3998C288.823 44.379 291.551 43.5052 293.843 41.8947L295.726 45.3793C292.68 47.4808 289.072 48.6162 285.372 48.6379C276.994 48.6379 270.33 42.5162 270.33 32.1942ZM292.29 29.623C292.29 23.3224 289.466 19.8943 284.544 19.8943C280.129 19.8943 276.185 23.4449 275.535 29.623H292.29Z" fill="white"/>
<path d="M301.516 16.4379H305.902L306.354 20.0638H306.533C309.357 17.6999 312.905 15.6562 316.548 15.6562C324.662 15.6562 329.001 21.9663 329.001 31.6668C329.001 42.375 322.572 48.6191 315.4 48.6191C312.519 48.6191 309.573 47.3006 306.693 44.9837L306.843 50.4744V61.1167H301.525L301.516 16.4379ZM323.514 31.7233C323.514 24.7822 321.142 20.1298 315.23 20.1298C312.566 20.1298 309.884 21.599 306.834 24.4244V40.8963C309.658 43.2885 312.406 44.1644 314.477 44.1644C319.682 44.1644 323.514 39.4836 323.514 31.7233Z" fill="white"/>
<path d="M332.258 32.1942C332.258 21.7026 339.11 15.6562 346.81 15.6562C354.51 15.6562 361.372 21.7026 361.372 32.1942C361.372 42.6857 354.51 48.6379 346.81 48.6379C339.11 48.6379 332.258 42.601 332.258 32.1942ZM355.875 32.1942C355.875 24.9894 352.213 20.0827 346.81 20.0827C341.407 20.0827 337.746 24.9894 337.746 32.1942C337.746 39.3989 341.407 44.2115 346.81 44.2115C352.213 44.2115 355.847 39.3895 355.847 32.1942H355.875Z" fill="white"/>
<path d="M366.049 16.4384H370.435L370.887 22.1551H371.066C373.25 18.1713 376.459 15.6567 379.999 15.6567C381.151 15.6051 382.3 15.8278 383.35 16.3065L382.352 20.9684C381.377 20.6183 380.348 20.4429 379.312 20.4504C376.657 20.4504 373.485 22.334 371.358 27.6834V47.8661H366.049V16.4384Z" fill="white"/>
<path d="M389.441 38.1466V20.7705H384.734V16.7396L389.648 16.4382L390.279 7.62305H394.721V16.4382H403.193V20.7705H394.721V38.2314C394.721 42.0739 395.964 44.2965 399.579 44.2965C400.811 44.2327 402.023 43.9488 403.155 43.4583L404.181 47.4704C402.312 48.1594 400.346 48.5503 398.355 48.6288C391.709 48.6382 389.441 44.4001 389.441 38.1466Z" fill="white"/>
</svg>
